<?xml version="1.0" standalone="no"?><!DOCTYPE svg PUBLIC "-//W3C//DTD SVG 1.1//EN" "http://www.w3.org/Graphics/SVG/1.1/DTD/svg11.dtd"><svg t="1612927096155" class="icon" viewBox="0 0 1024 1024" version="1.1" xmlns="http://www.w3.org/2000/svg" p-id="3399" xmlns:xlink="http://www.w3.org/1999/xlink" width="16" height="16"><defs><style type="text/css"></style></defs><path d="M646.0416 308.1216c161.1776 0 291.84 130.6624 291.84 291.84 0 159.5648-128.06144 289.22368-287.01696 291.79904l-4.82304 0.04096H338.816a199.68 199.68 0 1 1 33.4592-396.57472l1.2032 0.21504 0.24064-0.63488c41.6512-107.79648 145.46944-184.66816 267.4944-186.64448l4.82816-0.04096z m0 61.44c-127.24736 0-230.4 103.15264-230.4 230.4a30.72 30.72 0 1 1-61.44 0c0-14.50496 1.05984-28.76416 3.10272-42.7008l0.32256-2.11968-0.48128-0.06656a138.26048 138.26048 0 0 0-118.28736 41.728l-1.5872 1.6896a138.24 138.24 0 0 0 99.3792 231.84896l2.19136 0.02048h307.2c127.24736 0 230.4-103.15264 230.4-230.4s-103.15264-230.4-230.4-230.4zM331.5712 128.47104a30.72 30.72 0 0 1 35.36896 23.78752l0.22016 1.13152 16.00512 90.76224a30.72 30.72 0 0 1-60.288 11.79648l-0.22016-1.1264-16.00512-90.76224a30.72 30.72 0 0 1 24.91904-35.584zM133.29408 254.75584a30.72 30.72 0 0 1 41.75872-8.23296l1.024 0.6912 75.49952 52.85888a30.72 30.72 0 0 1-34.21696 51.0208l-1.024-0.6912-75.4944-52.85888a30.72 30.72 0 0 1-7.54688-42.78784zM198.07232 432.6656A30.72 30.72 0 0 1 209.8688 492.9536l-1.1264 0.22016-90.76224 16.00512a30.72 30.72 0 0 1-11.8016-60.288l1.13152-0.22016 90.76224-16.00512zM518.28736 186.92096a30.72 30.72 0 0 1 51.01568 34.21184l-0.68608 1.024-52.85888 75.49952a30.72 30.72 0 0 1-51.0208-34.21696l0.6912-1.024 52.85888-75.4944z" fill="#ffffff" p-id="3400"></path><path d="M386.2784 215.9104a215.07584 215.07584 0 0 1 195.01056 127.39072 30.72 30.72 0 0 1-56.10496 25.05216 153.63072 153.63072 0 1 0-256.6144 162.97984 30.72 30.72 0 0 1-46.5152 40.13056 215.07072 215.07072 0 0 1 161.6896-355.54816h2.5344z" fill="#ffffff" p-id="3401"></path></svg>