<?xml version="1.0" standalone="no"?><!DOCTYPE svg PUBLIC "-//W3C//DTD SVG 1.1//EN" "http://www.w3.org/Graphics/SVG/1.1/DTD/svg11.dtd"><svg t="1612926520390" class="icon" viewBox="0 0 1024 1024" version="1.1" xmlns="http://www.w3.org/2000/svg" p-id="2535" xmlns:xlink="http://www.w3.org/1999/xlink" width="16" height="16"><defs><style type="text/css"></style></defs><path d="M508.09856 92.17024C276.60288 92.17024 88.2688 280.50432 88.2688 512s188.33408 419.82976 419.82976 419.82976S927.92832 743.49568 927.92832 512 739.60448 92.17024 508.09856 92.17024zM508.09856 890.86976C299.19232 890.86976 129.2288 720.90624 129.2288 512s169.96352-378.86976 378.86976-378.86976S886.96832 303.09376 886.96832 512 717.01504 890.86976 508.09856 890.86976zM556.31872 222.6688c3.85024 3.96288 5.94944 9.29792 5.80608 14.81728l-13.50656 423.63904c-0.28672 11.1104-9.3696 19.95776-20.48 19.95776l-40.0896 0c-11.10016 0-20.19328-8.84736-20.48-19.95776l-13.50656-423.63904c-0.14336-5.51936 1.95584-10.86464 5.80608-14.81728 3.85024-3.95264 9.14432-6.18496 14.66368-6.18496l67.11296 0C547.1744 216.49408 552.46848 218.71616 556.31872 222.6688zM561.26464 737.31072l0 76.6976c0 11.30496-9.17504 20.48-20.48 20.48l-65.37216 0c-11.30496 0-20.48-9.17504-20.48-20.48l0-76.6976c0-11.30496 9.17504-20.48 20.48-20.48l65.37216 0C552.09984 716.83072 561.26464 725.99552 561.26464 737.31072z" p-id="2536" fill="#1afa29"></path></svg>